<svg xmlns="http://www.w3.org/2000/svg" viewBox="0 0 755 738"><defs><style>.cls-1{fill:#cc0;}.cls-2{fill:#c00;}.cls-3{fill:#06c;}.cls-4{fill:#090;}.cls-5{fill:#90c;}.cls-6{fill:#c60;}.cls-7{fill:#fff;}</style></defs><title>PzShape02</title><g id="Layer_2" data-name="Layer 2"><g id="PzShape"><g id="colrs"><rect class="cls-1" x="3" y="148" width="750" height="49"/><rect class="cls-2" x="3" y="21" width="750" height="49"/><rect class="cls-3" x="3" y="276" width="750" height="49"/><rect class="cls-4" x="3" y="404" width="750" height="49"/><rect class="cls-5" x="3" y="531" width="750" height="49"/><rect class="cls-6" x="3" y="658" width="750" height="49"/></g><g id="shape2"><g id="BG_copy" data-name="BG copy"><rect class="cls-7" x="377" y="21" width="151" height="51"/><rect class="cls-7" x="604" y="148" width="151" height="51"/><rect class="cls-7" y="276" width="151" height="53"/><rect class="cls-7" x="151" y="404" width="151" height="51"/><rect class="cls-7" x="604" y="530" width="151" height="51"/><rect class="cls-7" x="151" y="657" width="151" height="51"/></g><g id="FG_copy" data-name="FG copy"><rect x="665.26" y="99" width="27.74" height="137"/><rect x="438.26" width="27.74" height="122"/><rect x="212.37" y="615" width="27.63" height="123"/><rect x="665.37" y="476" width="27.63" height="123"/><rect x="212" y="355" width="28" height="141"/><rect x="61.37" y="226" width="27.63" height="148"/><rect x="374.06" y="-72.82" width="19.76" height="617.88" transform="translate(620.06 -147.82) rotate(90)"/><rect x="562.44" y="-11.44" width="20" height="240.88" transform="translate(681.44 -463.44) rotate(90)"/><rect x="449.56" y="252.68" width="19.76" height="466.88" transform="translate(945.56 26.68) rotate(90)"/><rect x="444.06" y="366.18" width="16.76" height="480.88" transform="translate(1059.06 154.18) rotate(90)"/><rect x="140.62" y="288.62" width="19.76" height="151" transform="translate(514.62 213.62) rotate(90)"/></g></g></g></g></svg>