<?xml version="1.0" encoding="utf-8"?>
<!-- Generator: Adobe Illustrator 21.0.2, SVG Export Plug-In . SVG Version: 6.00 Build 0)  -->
<svg version="1.1" xmlns="http://www.w3.org/2000/svg" xmlns:xlink="http://www.w3.org/1999/xlink" x="0px" y="0px"
	 viewBox="0 0 163.4 163.4" style="enable-background:new 0 0 163.4 163.4;" xml:space="preserve">
<style type="text/css">
	.st0{fill:none;stroke:#999999;stroke-width:5;stroke-miterlimit:10;}
	.st1{display:none;}
	.st2{display:inline;fill:#999999;}
	.st3{display:inline;}
	.st4{display:inline;fill:#FFFFFF;}
	.st5{display:inline;fill:#981B1E;}
</style>
<g id="Layer_1">
	<title>clock-0</title>
	<circle class="st0" cx="81.7" cy="81.7" r="79.2"/>
</g>
<g id="Layer_3" class="st1">
	<path class="st2" d="M79,79V9.6C41.3,11,11,41.3,9.6,79H79z"/>
	<path class="st2" d="M84.3,79h69.4c-1.4-37.7-31.7-68-69.4-69.4V79z"/>
	<path class="st2" d="M79,84.3H9.6c1.4,37.7,31.7,68,69.4,69.4V84.3z"/>
	<path class="st2" d="M84.3,84.3v69.4c37.8-1.4,68.1-31.7,69.4-69.4L84.3,84.3z"/>
</g>
<g id="Layer_2_1_" class="st1">
	<path class="st3" d="M66,56.6l8.5-3.8l2.7,6.1c2.9-0.7,5.9-0.7,8.8-0.2l2.4-6.2l8.6,3.3L94.6,62c2.5,1.6,4.6,3.6,6.4,6.1l6.1-2.7
		l3.8,8.5l-6.1,2.7c0.7,2.9,0.7,5.9,0.2,8.8l6.2,2.4l-3.3,8.6l-6.2-2.4c-1.6,2.5-3.6,4.6-6.1,6.4l2.7,6.1l-8.5,3.8l-2.7-6.1
		c-2.9,0.7-5.9,0.7-8.8,0.2l-2.4,6.2l-8.6-3.3l2.4-6.2c-2.5-1.6-4.6-3.6-6.4-6.1l-6.1,2.7l-3.8-8.5l6.1-2.7
		c-0.7-2.9-0.7-5.9-0.2-8.8l-6.2-2.4l3.3-8.6l6.2,2.4c1.6-2.5,3.6-4.6,6.1-6.4L66,56.6z M76.5,68.8c-7,3.1-10.2,11.3-7,18.3
		c3.1,7,11.3,10.2,18.3,7c7-3.1,10.2-11.3,7-18.3C91.7,68.8,83.5,65.7,76.5,68.8z"/>
	<circle class="st4" cx="82.1" cy="81.4" r="18.4"/>
	<polygon class="st3" points="64.9,4 73.5,41 74.7,41 76.6,31.2 87.6,31.2 89.6,41 90.8,41 99.4,4 	"/>
	<path class="st3" d="M108.7,6.5L96.5,42.8l14.7,9.1l26.9-27.2L108.7,6.5z M110.1,51.1l-12.7-7.8l6.8-7.4l9.4,5.8L110.1,51.1z"/>
	<polygon class="st3" points="110.2,112.3 109.2,112.9 112.5,122.3 103,127.9 96.4,120.3 97.5,119.7 95.2,121 106.6,157.7 
		136.4,140.4 	"/>
	<path class="st3" d="M90.8,122.3H73.5l-8.6,37.1h34.5L90.8,122.3z M87.7,132.3l-11,0.1l-2-9.8l14.9-0.2L87.7,132.3z"/>
	<path class="st3" d="M121.7,94.9l-9.1,14.7l27.1,26.9l18.1-29.4L121.7,94.9z M122.7,112.3l-9.4-3.5l7.8-12.7l7.4,6.8L122.7,112.3z"
		/>
	<polygon class="st3" points="142,29.4 114,55.7 114.7,57 124.1,53.7 129.7,63.2 122.2,69.8 122.6,70.6 159.3,59.3 	"/>
	<polygon class="st3" points="122.8,73 122.8,74.4 132.6,76.3 132.6,87.3 122.8,89.2 122.8,90.3 159.8,98.9 159.8,64.4 	"/>
	<polygon class="st3" points="53,40.2 62.4,34.5 69.2,42 60,47.5 70.4,41.5 59.3,5.1 29.4,22.4 55.5,50.1 56.4,49.6 	"/>
	<path class="st3" d="M54.7,112.1l-27.3,27.3l29.3,18.3l12.7-36.5L54.7,112.1z M52,122.2l3.5-9.4l12.7,7.8l-6.8,7.4L52,122.2z"/>
	<path class="st3" d="M42.2,93.7L5.7,104.6l17.1,30l28-25.9L42.2,93.7z M35.2,101.3l7.6-6.5l7.4,12.9l-9.5,3.2L35.2,101.3z"/>
	<polygon class="st3" points="36.1,60.8 41.7,51.3 51.1,54.6 51.9,53.2 24.7,26.3 6.5,55.7 42.8,67.9 43.3,67.2 	"/>
	<polygon class="st3" points="4.4,64.2 4.4,98.7 41.5,90.1 41.5,88.9 31.6,87 31.6,75.9 41.4,74 41.5,88.9 41.5,72.8 	"/>
	<circle class="st5" cx="82.1" cy="81.4" r="13.3"/>
</g>
</svg>
