<?xml version="1.0" encoding="utf-8"?>
<!-- Generator: Adobe Illustrator 15.0.0, SVG Export Plug-In . SVG Version: 6.00 Build 0)  -->
<!DOCTYPE svg PUBLIC "-//W3C//DTD SVG 1.1//EN" "http://www.w3.org/Graphics/SVG/1.1/DTD/svg11.dtd">
<svg version="1.1" id="Layer_2" xmlns="http://www.w3.org/2000/svg" xmlns:xlink="http://www.w3.org/1999/xlink" x="0px" y="0px"
	 width="600px" height="1200px" viewBox="0 0 600 1200" enable-background="new 0 0 600 1200" xml:space="preserve">
<g>
	<g>
		<defs>
			<rect id="SVGID_1_" x="-716.257" y="-501.741" width="1882.161" height="1873.633"/>
		</defs>
		<clipPath id="SVGID_2_">
			<use xlink:href="#SVGID_1_"  overflow="visible"/>
		</clipPath>
		<g clip-path="url(#SVGID_2_)">
			<g>
				<defs>
					<rect id="SVGID_3_" x="-707.728" y="-501.741" width="1873.635" height="1873.633"/>
				</defs>
				<clipPath id="SVGID_4_">
					<use xlink:href="#SVGID_3_"  overflow="visible"/>
				</clipPath>
				<g transform="matrix(1 0 0 1 -9.207230e-006 -7.621015e-012)" clip-path="url(#SVGID_4_)">
					
						<image overflow="visible" enable-background="new    " width="998" height="998" xlink:href="56682D2C.jpg"  transform="matrix(1.8774 0 0 1.8774 -707.729 -501.7437)">
					</image>
				</g>
			</g>
			<g>
				<defs>
					<rect id="SVGID_5_" x="-716.257" y="-501.741" width="1882.161" height="1873.633"/>
				</defs>
				<clipPath id="SVGID_6_">
					<use xlink:href="#SVGID_5_"  overflow="visible"/>
				</clipPath>
				<rect x="-707.728" y="-501.741" clip-path="url(#SVGID_6_)" width="1873.639" height="1873.633"/>
			</g>
			<g>
				<defs>
					<rect id="SVGID_7_" x="-716.257" y="-501.741" width="1882.161" height="1873.633"/>
				</defs>
				<clipPath id="SVGID_8_">
					<use xlink:href="#SVGID_7_"  overflow="visible"/>
				</clipPath>
				<path clip-path="url(#SVGID_8_)" fill="#FFFFFF" d="M-325.915,946.908V10.496l13.767-5.305l0.003,953.292L-325.915,946.908z
					 M-274.56,990.072V-9.294l555.701-214.126l0.004,1332.109l-347.115,56.695L-274.56,990.072z M318.734-237.906l514.713-198.337
					h0.002h-0.002l0.002,1454.715l-514.715,84.076V-237.906z M898.883-501.741L318.734-278.192v-223.548h-37.59v238.034
					L-274.56-49.577v-452.164h-37.588v466.647l-13.767,5.306v-471.953h-37.588v486.437l-344.226,132.64v40.285l344.226-132.643
					l-0.006,890.333l-344.22-289.307v49.105l829.045,696.782h58.423l-207.765-174.62l1193.933-195.015v-38.09l-294.868,48.163
					V-450.727l132.394-51.014H898.883z"/>
			</g>
			<g>
				<defs>
					<rect id="SVGID_9_" x="-716.257" y="-501.741" width="1882.161" height="1873.633"/>
				</defs>
				<clipPath id="SVGID_10_">
					<use xlink:href="#SVGID_9_"  overflow="visible"/>
				</clipPath>
				<rect x="28.414" y="889.723" clip-path="url(#SVGID_10_)" fill="#999999" width="206.121" height="206.118"/>
			</g>
			<g>
				<defs>
					<rect id="SVGID_11_" x="-716.257" y="-501.741" width="1882.161" height="1873.633"/>
				</defs>
				<clipPath id="SVGID_12_">
					<use xlink:href="#SVGID_11_"  overflow="visible"/>
				</clipPath>
				<g clip-path="url(#SVGID_12_)">
					<g>
						<defs>
							<rect id="SVGID_13_" x="-716.257" y="-501.741" width="1882.165" height="1873.633"/>
						</defs>
						<defs>
							<rect id="SVGID_14_" x="-716.257" y="-501.741" width="1882.165" height="1873.633"/>
						</defs>
						<defs>
							<rect id="SVGID_15_" x="-716.257" y="-501.741" width="1882.165" height="1873.633"/>
						</defs>
						<defs>
							<rect id="SVGID_16_" x="-716.257" y="-501.741" width="1882.165" height="1873.633"/>
						</defs>
						<defs>
							<rect id="SVGID_17_" x="-716.257" y="-501.741" width="1882.165" height="1873.633"/>
						</defs>
						<defs>
							<rect id="SVGID_18_" x="-716.257" y="-501.741" width="1882.165" height="1873.633"/>
						</defs>
						<defs>
							<rect id="SVGID_19_" x="-716.257" y="-501.741" width="1882.165" height="1873.633"/>
						</defs>
						<defs>
							<rect id="SVGID_20_" x="-716.257" y="-501.741" width="1882.165" height="1873.633"/>
						</defs>
						<defs>
							<rect id="SVGID_21_" x="-716.257" y="-501.741" width="1882.165" height="1873.633"/>
						</defs>
						<defs>
							<rect id="SVGID_22_" x="-716.257" y="-501.741" width="1882.165" height="1873.633"/>
						</defs>
						<defs>
							<rect id="SVGID_23_" x="-716.257" y="-501.741" width="1882.165" height="1873.633"/>
						</defs>
						<defs>
							<rect id="SVGID_24_" x="-716.257" y="-501.741" width="1882.165" height="1873.633"/>
						</defs>
						<clipPath id="SVGID_25_">
							<use xlink:href="#SVGID_13_"  overflow="visible"/>
						</clipPath>
						<clipPath id="SVGID_26_" clip-path="url(#SVGID_25_)">
							<use xlink:href="#SVGID_14_"  overflow="visible"/>
						</clipPath>
						<clipPath id="SVGID_27_" clip-path="url(#SVGID_26_)">
							<use xlink:href="#SVGID_15_"  overflow="visible"/>
						</clipPath>
						<clipPath id="SVGID_28_" clip-path="url(#SVGID_27_)">
							<use xlink:href="#SVGID_16_"  overflow="visible"/>
						</clipPath>
						<clipPath id="SVGID_29_" clip-path="url(#SVGID_28_)">
							<use xlink:href="#SVGID_17_"  overflow="visible"/>
						</clipPath>
						<clipPath id="SVGID_30_" clip-path="url(#SVGID_29_)">
							<use xlink:href="#SVGID_18_"  overflow="visible"/>
						</clipPath>
						<clipPath id="SVGID_31_" clip-path="url(#SVGID_30_)">
							<use xlink:href="#SVGID_19_"  overflow="visible"/>
						</clipPath>
						<clipPath id="SVGID_32_" clip-path="url(#SVGID_31_)">
							<use xlink:href="#SVGID_20_"  overflow="visible"/>
						</clipPath>
						<clipPath id="SVGID_33_" clip-path="url(#SVGID_32_)">
							<use xlink:href="#SVGID_21_"  overflow="visible"/>
						</clipPath>
						<clipPath id="SVGID_34_" clip-path="url(#SVGID_33_)">
							<use xlink:href="#SVGID_22_"  overflow="visible"/>
						</clipPath>
						<clipPath id="SVGID_35_" clip-path="url(#SVGID_34_)">
							<use xlink:href="#SVGID_23_"  overflow="visible"/>
						</clipPath>
						<clipPath id="SVGID_36_" clip-path="url(#SVGID_35_)">
							<use xlink:href="#SVGID_24_"  overflow="visible"/>
						</clipPath>
						<path clip-path="url(#SVGID_36_)" fill="#999999" d="M-9.177,1015.651L-9.177,1015.651v-226.17h-119.034
							C-128.211,914.392-134.085,1015.651-9.177,1015.651"/>
						<polygon clip-path="url(#SVGID_36_)" fill="#999999" points="28.412,263.846 234.535,263.846 234.535,389.773 
							123.013,389.773 123.013,745.001 234.535,745.001 234.535,870.928 28.412,870.928 						"/>
						<rect x="232.655" y="389.773" clip-path="url(#SVGID_36_)" fill="#999999" width="1.879" height="355.228"/>
						<rect x="365.388" y="711.169" clip-path="url(#SVGID_36_)" fill="#999999" width="206.122" height="304.423"/>
						<polygon clip-path="url(#SVGID_36_)" fill="#999999" points="406.656,295.171 406.656,217.53 365.385,217.53 365.385,176.264 
							406.656,176.264 406.656,98.627 447.813,98.627 447.816,57.359 489.083,57.359 489.083,98.627 530.243,98.627 
							530.243,295.171 571.51,295.171 571.51,599.593 365.385,599.593 365.385,295.171 						"/>
						<rect x="588.508" y="790.737" clip-path="url(#SVGID_36_)" fill="#999999" width="206.119" height="206.118"/>
						<rect x="588.508" y="566.447" clip-path="url(#SVGID_36_)" fill="#999999" width="103.057" height="206.118"/>
						<rect x="588.508" y="57.359" clip-path="url(#SVGID_36_)" fill="#999999" width="206.119" height="491.233"/>
						<polygon clip-path="url(#SVGID_36_)" fill="#999999" points="-62.428,78.582 -202.292,132.478 -202.292,213.021 
							-62.428,159.127 						"/>
						<polygon clip-path="url(#SVGID_36_)" fill="#999999" points="243.772,-161.087 16.511,-73.517 16.511,127.074 243.772,39.504 
													"/>
						<polygon clip-path="url(#SVGID_36_)" fill="#999999" points="797.519,-375.868 365.385,-209.354 365.385,39.504 
							797.519,-127.01 						"/>
						<polygon clip-path="url(#SVGID_36_)" fill="#999999" points="-132.359,347.622 -132.359,310.208 -202.292,310.208 
							-202.292,455.111 -62.428,401.219 -62.428,320.675 						"/>
					</g>
				</g>
			</g>
		</g>
	</g>
</g>
</svg>
